<?xml version="1.0" encoding="UTF-8"?>
<svg id="Layer_1" data-name="Layer 1" xmlns="http://www.w3.org/2000/svg" viewBox="0 0 724.87 280.26">
  <defs>
    <style>
      .cls-1 {
        fill: #0b337b;
      }

      .cls-2 {
        fill: #123e87;
      }

      .cls-3 {
        fill: #ff8002;
      }
    </style>
  </defs>
  <g>
    <path class="cls-1" d="M360.78,52.08v52.22h-10.48v-33.97l-13.99,33.97h-7.93l-14.07-33.97v33.97h-10.47v-52.22h11.89l16.61,38.83,16.61-38.83h11.82Z"/>
    <path class="cls-1" d="M381.58,62.85v41.45h-10.47v-41.45h10.47Z"/>
    <path class="cls-1" d="M436.68,64.12c2.17-1.25,4.65-1.87,7.44-1.87v11h-2.77c-3.29,0-5.77.77-7.45,2.32-1.67,1.55-2.51,4.24-2.51,8.08v20.65h-10.47v-41.45h10.47v6.44c1.35-2.19,3.1-3.91,5.28-5.16Z"/>
    <path class="cls-1" d="M450.97,72.28c1.67-3.24,3.94-5.73,6.81-7.48,2.87-1.74,6.07-2.62,9.61-2.62,3.09,0,5.8.62,8.12,1.87s4.18,2.82,5.57,4.71v-5.91h10.55v41.45h-10.55v-6.06c-1.35,1.95-3.21,3.56-5.57,4.83-2.37,1.27-5.1,1.91-8.19,1.91-3.49,0-6.67-.9-9.54-2.69-2.87-1.8-5.14-4.33-6.81-7.6-1.67-3.26-2.51-7.02-2.51-11.26s.83-7.9,2.51-11.15ZM479.59,77.03c-1-1.82-2.35-3.22-4.04-4.19-1.7-.97-3.52-1.46-5.46-1.46s-3.74.48-5.39,1.42c-1.65.95-2.98,2.33-4,4.15-1.02,1.82-1.53,3.98-1.53,6.47s.51,4.68,1.53,6.55c1.02,1.87,2.37,3.3,4.04,4.3,1.67,1,3.46,1.5,5.35,1.5s3.76-.49,5.46-1.46c1.69-.97,3.04-2.37,4.04-4.19s1.5-4,1.5-6.55-.5-4.73-1.5-6.55Z"/>
    <path class="cls-1" d="M550.14,52.08v36.66c0,5.09-1.48,9.04-4.42,11.86-2.95,2.82-6.88,4.23-11.82,4.23s-9.02-1.45-12.09-4.34c-3.07-2.89-4.6-6.93-4.6-12.12h10.48c.05,2.25.58,3.99,1.61,5.24,1.02,1.25,2.51,1.87,4.45,1.87s3.34-.6,4.34-1.79c1-1.2,1.5-2.84,1.5-4.94v-36.66h10.55Z"/>
    <path class="cls-1" d="M562.14,72.28c1.67-3.24,3.94-5.73,6.81-7.48,2.87-1.74,6.07-2.62,9.61-2.62,3.09,0,5.8.62,8.12,1.87s4.18,2.82,5.57,4.71v-5.91h10.55v41.45h-10.55v-6.06c-1.35,1.95-3.21,3.56-5.57,4.83-2.37,1.27-5.1,1.91-8.19,1.91-3.49,0-6.67-.9-9.54-2.69-2.87-1.8-5.14-4.33-6.81-7.6-1.67-3.26-2.51-7.02-2.51-11.26s.83-7.9,2.51-11.15ZM590.76,77.03c-1-1.82-2.35-3.22-4.04-4.19-1.7-.97-3.52-1.46-5.46-1.46s-3.74.48-5.39,1.42c-1.65.95-2.98,2.33-4,4.15-1.02,1.82-1.53,3.98-1.53,6.47s.51,4.68,1.53,6.55c1.02,1.87,2.37,3.3,4.04,4.3,1.67,1,3.46,1.5,5.35,1.5s3.76-.49,5.46-1.46c1.69-.97,3.04-2.37,4.04-4.19,1-1.82,1.5-4,1.5-6.55s-.5-4.73-1.5-6.55Z"/>
    <path class="cls-1" d="M619.79,103.14c-2.69-1.22-4.82-2.88-6.4-4.98-1.57-2.09-2.43-4.41-2.58-6.96h10.55c.2,1.6.99,2.92,2.36,3.97,1.37,1.05,3.08,1.57,5.13,1.57s3.55-.4,4.68-1.2c1.12-.8,1.68-1.82,1.68-3.07,0-1.35-.68-2.36-2.06-3.03-1.37-.67-3.55-1.41-6.54-2.21-3.09-.75-5.63-1.52-7.6-2.32-1.97-.8-3.66-2.02-5.08-3.66-1.42-1.65-2.13-3.87-2.13-6.66,0-2.3.66-4.39,1.99-6.28,1.32-1.9,3.22-3.39,5.68-4.49,2.47-1.1,5.37-1.65,8.72-1.65,4.94,0,8.88,1.23,11.82,3.7,2.95,2.47,4.56,5.8,4.86,9.99h-10.02c-.15-1.65-.84-2.96-2.06-3.93-1.22-.97-2.86-1.46-4.9-1.46-1.9,0-3.35.35-4.38,1.05-1.02.7-1.53,1.67-1.53,2.92,0,1.4.7,2.46,2.1,3.18,1.4.72,3.57,1.46,6.51,2.21,2.99.75,5.46,1.52,7.41,2.32,1.94.8,3.63,2.03,5.05,3.7,1.42,1.67,2.15,3.88,2.21,6.62,0,2.39-.66,4.54-1.99,6.43-1.32,1.9-3.22,3.38-5.68,4.45-2.47,1.07-5.35,1.61-8.64,1.61s-6.43-.61-9.13-1.83Z"/>
    <path class="cls-1" d="M653.64,72.28c1.67-3.24,3.94-5.73,6.81-7.48,2.87-1.74,6.07-2.62,9.61-2.62,3.09,0,5.8.62,8.12,1.87,2.32,1.25,4.18,2.82,5.57,4.71v-5.91h10.55v41.45h-10.55v-6.06c-1.35,1.95-3.21,3.56-5.57,4.83-2.37,1.27-5.1,1.91-8.19,1.91-3.49,0-6.67-.9-9.54-2.69-2.87-1.8-5.14-4.33-6.81-7.6-1.67-3.26-2.51-7.02-2.51-11.26s.83-7.9,2.51-11.15ZM682.26,77.03c-1-1.82-2.35-3.22-4.04-4.19-1.7-.97-3.52-1.46-5.46-1.46s-3.74.48-5.39,1.42c-1.65.95-2.98,2.33-4,4.15-1.02,1.82-1.53,3.98-1.53,6.47s.51,4.68,1.53,6.55c1.02,1.87,2.37,3.3,4.04,4.3,1.67,1,3.46,1.5,5.35,1.5s3.76-.49,5.46-1.46c1.69-.97,3.04-2.37,4.04-4.19s1.5-4,1.5-6.55-.5-4.73-1.5-6.55Z"/>
    <path class="cls-1" d="M314.32,177.05h17.21v8.3h-27.68v-52.22h10.47v43.92Z"/>
    <path class="cls-1" d="M376.42,167.77h-30.3c.25,2.99,1.3,5.34,3.14,7.03,1.84,1.7,4.11,2.54,6.81,2.54,3.89,0,6.66-1.67,8.3-5.01h11.3c-1.2,3.99-3.49,7.27-6.88,9.84-3.39,2.57-7.56,3.85-12.49,3.85-3.99,0-7.57-.89-10.74-2.66s-5.64-4.28-7.4-7.52c-1.77-3.24-2.66-6.98-2.66-11.22s.87-8.05,2.62-11.3c1.74-3.24,4.19-5.73,7.33-7.48,3.14-1.74,6.76-2.62,10.85-2.62s7.47.85,10.58,2.54c3.12,1.7,5.54,4.1,7.26,7.22,1.72,3.12,2.58,6.7,2.58,10.73,0,1.5-.1,2.84-.3,4.04ZM365.87,160.74c-.05-2.69-1.02-4.85-2.92-6.47-1.89-1.62-4.21-2.43-6.95-2.43-2.6,0-4.78.79-6.55,2.36-1.77,1.57-2.86,3.75-3.25,6.55h19.68Z"/>
    <path class="cls-1" d="M408.74,145.06c2.35,1.22,4.19,2.81,5.54,4.75v-5.91h10.55v41.75c0,3.84-.77,7.27-2.32,10.29-1.55,3.02-3.87,5.41-6.96,7.18-3.09,1.77-6.84,2.65-11.23,2.65-5.89,0-10.71-1.37-14.47-4.11-3.77-2.74-5.9-6.49-6.4-11.22h10.4c.55,1.89,1.73,3.4,3.55,4.53,1.82,1.12,4.03,1.68,6.62,1.68,3.04,0,5.51-.91,7.4-2.73,1.89-1.82,2.84-4.58,2.84-8.27v-6.44c-1.35,1.95-3.21,3.57-5.57,4.86-2.37,1.3-5.07,1.95-8.12,1.95-3.49,0-6.68-.9-9.57-2.69-2.89-1.8-5.17-4.33-6.85-7.6-1.67-3.26-2.51-7.02-2.51-11.26s.83-7.9,2.51-11.15c1.67-3.24,3.94-5.73,6.81-7.48,2.87-1.74,6.07-2.62,9.61-2.62,3.09,0,5.81.61,8.16,1.83ZM412.78,158.08c-1-1.82-2.35-3.22-4.04-4.19-1.7-.97-3.52-1.46-5.46-1.46s-3.74.48-5.39,1.42-2.98,2.33-4,4.15c-1.02,1.82-1.53,3.98-1.53,6.47s.51,4.68,1.53,6.55c1.02,1.87,2.37,3.3,4.04,4.3,1.67,1,3.46,1.5,5.35,1.5s3.76-.49,5.46-1.46c1.69-.97,3.04-2.37,4.04-4.19,1-1.82,1.5-4,1.5-6.55s-.5-4.73-1.5-6.55Z"/>
    <path class="cls-1" d="M434.88,153.33c1.67-3.24,3.94-5.73,6.81-7.48,2.87-1.74,6.07-2.62,9.61-2.62,3.09,0,5.8.62,8.12,1.87,2.32,1.25,4.18,2.82,5.57,4.71v-5.91h10.55v41.45h-10.55v-6.06c-1.35,1.95-3.21,3.56-5.57,4.83-2.37,1.27-5.1,1.91-8.19,1.91-3.49,0-6.67-.9-9.54-2.69-2.87-1.8-5.14-4.33-6.81-7.6-1.67-3.26-2.51-7.02-2.51-11.26s.83-7.9,2.51-11.15ZM463.5,158.08c-1-1.82-2.35-3.22-4.04-4.19-1.7-.97-3.52-1.46-5.46-1.46s-3.74.48-5.39,1.42-2.98,2.33-4,4.15c-1.02,1.82-1.53,3.98-1.53,6.47s.51,4.68,1.53,6.55c1.02,1.87,2.37,3.3,4.04,4.3,1.67,1,3.46,1.5,5.35,1.5s3.76-.49,5.46-1.46c1.69-.97,3.04-2.37,4.04-4.19,1-1.82,1.5-4,1.5-6.55s-.5-4.73-1.5-6.55Z"/>
    <path class="cls-1" d="M496.27,129.99v55.36h-10.47v-55.36h10.47Z"/>
    <path class="cls-1" d="M517.07,143.9v41.45h-10.47v-41.45h10.47Z"/>
    <path class="cls-1" d="M556.23,153.33c1.67-3.24,3.94-5.73,6.81-7.48,2.87-1.74,6.07-2.62,9.61-2.62,3.09,0,5.8.62,8.12,1.87,2.32,1.25,4.18,2.82,5.57,4.71v-5.91h10.55v41.45h-10.55v-6.06c-1.35,1.95-3.21,3.56-5.57,4.83-2.37,1.27-5.1,1.91-8.19,1.91-3.49,0-6.67-.9-9.54-2.69-2.87-1.8-5.14-4.33-6.81-7.6-1.67-3.26-2.51-7.02-2.51-11.26s.83-7.9,2.51-11.15ZM584.85,158.08c-1-1.82-2.35-3.22-4.04-4.19-1.7-.97-3.52-1.46-5.46-1.46s-3.74.48-5.39,1.42c-1.65.95-2.98,2.33-4,4.15-1.02,1.82-1.53,3.98-1.53,6.47s.51,4.68,1.53,6.55c1.02,1.87,2.37,3.3,4.04,4.3s3.46,1.5,5.35,1.5,3.76-.49,5.46-1.46c1.69-.97,3.04-2.37,4.04-4.19,1-1.82,1.5-4,1.5-6.55s-.5-4.73-1.5-6.55Z"/>
    <path class="cls-1" d="M613.88,184.19c-2.69-1.22-4.82-2.88-6.4-4.98-1.57-2.09-2.43-4.41-2.58-6.96h10.55c.2,1.6.99,2.92,2.36,3.97,1.37,1.05,3.08,1.57,5.13,1.57s3.55-.4,4.68-1.2c1.12-.8,1.68-1.82,1.68-3.07,0-1.35-.68-2.36-2.06-3.03-1.37-.67-3.55-1.41-6.54-2.21-3.09-.75-5.63-1.52-7.6-2.32-1.97-.8-3.66-2.02-5.08-3.66-1.42-1.65-2.13-3.87-2.13-6.66,0-2.3.66-4.39,1.99-6.28,1.32-1.9,3.22-3.39,5.68-4.49,2.47-1.1,5.37-1.65,8.72-1.65,4.94,0,8.88,1.23,11.82,3.7,2.95,2.47,4.56,5.8,4.86,9.99h-10.02c-.15-1.65-.84-2.96-2.06-3.93-1.22-.97-2.86-1.46-4.9-1.46-1.9,0-3.35.35-4.38,1.05-1.02.7-1.53,1.67-1.53,2.92,0,1.4.7,2.46,2.1,3.18,1.4.72,3.57,1.46,6.51,2.21,2.99.75,5.46,1.52,7.41,2.32,1.94.8,3.63,2.03,5.05,3.7,1.42,1.67,2.15,3.88,2.21,6.62,0,2.39-.66,4.54-1.99,6.43-1.32,1.9-3.22,3.38-5.68,4.45-2.47,1.07-5.35,1.61-8.64,1.61s-6.43-.61-9.13-1.83Z"/>
    <g>
      <path class="cls-3" d="M307.41,233.55h5.85v2.82h-9.42v-17.76h3.56v14.94Z"/>
      <path class="cls-3" d="M315.47,225.48c.57-1.1,1.34-1.95,2.32-2.54.98-.59,2.07-.89,3.27-.89,1.05,0,1.97.21,2.76.64.79.42,1.42.96,1.9,1.6v-2.01h3.59v14.1h-3.59v-2.06c-.46.66-1.09,1.21-1.9,1.64-.81.43-1.73.65-2.79.65-1.19,0-2.27-.31-3.24-.92-.98-.61-1.75-1.47-2.32-2.58-.57-1.11-.85-2.39-.85-3.83s.28-2.69.85-3.79ZM325.2,227.1c-.34-.62-.8-1.09-1.37-1.42-.58-.33-1.2-.5-1.86-.5s-1.27.16-1.83.48c-.56.32-1.01.79-1.36,1.41-.35.62-.52,1.35-.52,2.2s.17,1.59.52,2.23c.35.64.81,1.12,1.37,1.46.57.34,1.17.51,1.82.51s1.28-.17,1.86-.5c.58-.33,1.03-.81,1.37-1.42s.51-1.36.51-2.23-.17-1.61-.51-2.23Z"/>
      <path class="cls-3" d="M346.27,222.27l-8.73,20.76h-3.79l3.05-7.02-5.65-13.74h4l3.64,9.85,3.69-9.85h3.79Z"/>
      <path class="cls-3" d="M348.12,225.48c.57-1.1,1.34-1.95,2.32-2.54.98-.59,2.07-.89,3.27-.89,1.05,0,1.97.21,2.76.64.79.42,1.42.96,1.9,1.6v-2.01h3.59v14.1h-3.59v-2.06c-.46.66-1.09,1.21-1.9,1.64-.81.43-1.73.65-2.79.65-1.19,0-2.27-.31-3.24-.92-.98-.61-1.75-1.47-2.32-2.58-.57-1.11-.85-2.39-.85-3.83s.28-2.69.85-3.79ZM357.85,227.1c-.34-.62-.8-1.09-1.37-1.42-.58-.33-1.2-.5-1.86-.5s-1.27.16-1.83.48c-.56.32-1.01.79-1.36,1.41-.35.62-.52,1.35-.52,2.2s.17,1.59.52,2.23c.35.64.81,1.12,1.37,1.46.57.34,1.17.51,1.82.51s1.28-.17,1.86-.5c.58-.33,1.03-.81,1.37-1.42s.51-1.36.51-2.23-.17-1.61-.51-2.23Z"/>
      <path class="cls-3" d="M377.32,223.66c1.03,1.06,1.55,2.54,1.55,4.44v8.27h-3.56v-7.79c0-1.12-.28-1.98-.84-2.58-.56-.6-1.32-.9-2.29-.9s-1.76.3-2.33.9c-.57.6-.85,1.46-.85,2.58v7.79h-3.56v-14.1h3.56v1.76c.47-.61,1.08-1.09,1.82-1.44.74-.35,1.55-.52,2.43-.52,1.68,0,3.04.53,4.07,1.59Z"/>
      <path class="cls-3" d="M382.19,225.48c.57-1.1,1.34-1.95,2.32-2.54.98-.59,2.07-.89,3.27-.89,1.05,0,1.97.21,2.76.64s1.42.96,1.9,1.6v-2.01h3.59v14.1h-3.59v-2.06c-.46.66-1.09,1.21-1.9,1.64s-1.74.65-2.79.65c-1.19,0-2.27-.31-3.24-.92-.98-.61-1.75-1.47-2.32-2.58s-.85-2.39-.85-3.83.28-2.69.85-3.79ZM391.92,227.1c-.34-.62-.8-1.09-1.37-1.42-.58-.33-1.2-.5-1.86-.5s-1.27.16-1.83.48c-.56.32-1.01.79-1.36,1.41s-.52,1.35-.52,2.2.17,1.59.52,2.23c.35.64.81,1.12,1.37,1.46.57.34,1.17.51,1.82.51s1.28-.17,1.86-.5c.58-.33,1.03-.81,1.37-1.42.34-.62.51-1.36.51-2.23s-.17-1.61-.51-2.23Z"/>
      <path class="cls-3" d="M411.39,223.66c1.03,1.06,1.55,2.54,1.55,4.44v8.27h-3.56v-7.79c0-1.12-.28-1.98-.84-2.58-.56-.6-1.32-.9-2.29-.9s-1.76.3-2.33.9c-.57.6-.85,1.46-.85,2.58v7.79h-3.56v-14.1h3.56v1.76c.47-.61,1.08-1.09,1.82-1.44.74-.35,1.55-.52,2.43-.52,1.68,0,3.04.53,4.07,1.59Z"/>
      <path class="cls-3" d="M425.94,233.55h5.85v2.82h-9.42v-17.76h3.56v14.94Z"/>
      <path class="cls-3" d="M447.07,230.39h-10.31c.08,1.02.44,1.82,1.07,2.39.63.58,1.4.87,2.32.87,1.32,0,2.26-.57,2.82-1.71h3.84c-.41,1.36-1.19,2.47-2.34,3.35-1.15.87-2.57,1.31-4.25,1.31-1.36,0-2.57-.3-3.65-.9-1.08-.6-1.92-1.45-2.52-2.56-.6-1.1-.9-2.38-.9-3.82s.3-2.74.89-3.84c.59-1.1,1.42-1.95,2.49-2.54,1.07-.59,2.3-.89,3.69-.89s2.54.29,3.6.87c1.06.58,1.88,1.4,2.47,2.46.58,1.06.88,2.28.88,3.65,0,.51-.03.97-.1,1.37ZM443.48,228c-.02-.92-.35-1.65-.99-2.2-.64-.55-1.43-.83-2.37-.83-.88,0-1.62.27-2.23.8-.6.53-.97,1.28-1.11,2.23h6.69Z"/>
      <path class="cls-3" d="M458.06,222.67c.8.42,1.42.95,1.88,1.62v-2.01h3.59v14.2c0,1.31-.26,2.47-.79,3.5-.53,1.03-1.32,1.84-2.37,2.44-1.05.6-2.32.9-3.82.9-2,0-3.64-.47-4.92-1.4-1.28-.93-2.01-2.21-2.18-3.82h3.54c.19.64.59,1.16,1.21,1.54.62.38,1.37.57,2.25.57,1.04,0,1.88-.31,2.52-.93.64-.62.97-1.56.97-2.81v-2.19c-.46.66-1.09,1.21-1.9,1.65s-1.73.66-2.76.66c-1.19,0-2.27-.31-3.26-.92-.98-.61-1.76-1.47-2.33-2.58s-.85-2.39-.85-3.83.28-2.69.85-3.79c.57-1.1,1.34-1.95,2.32-2.54.98-.59,2.07-.89,3.27-.89,1.05,0,1.98.21,2.77.62ZM459.43,227.1c-.34-.62-.8-1.09-1.37-1.42-.58-.33-1.2-.5-1.86-.5s-1.27.16-1.83.48c-.56.32-1.01.79-1.36,1.41s-.52,1.35-.52,2.2.17,1.59.52,2.23c.35.64.81,1.12,1.37,1.46.57.34,1.17.51,1.82.51s1.28-.17,1.86-.5c.58-.33,1.03-.81,1.37-1.42.34-.62.51-1.36.51-2.23s-.17-1.61-.51-2.23Z"/>
      <path class="cls-3" d="M466.95,225.48c.57-1.1,1.34-1.95,2.32-2.54.98-.59,2.07-.89,3.27-.89,1.05,0,1.97.21,2.76.64s1.42.96,1.9,1.6v-2.01h3.59v14.1h-3.59v-2.06c-.46.66-1.09,1.21-1.9,1.64s-1.74.65-2.79.65c-1.19,0-2.27-.31-3.24-.92-.98-.61-1.75-1.47-2.32-2.58s-.85-2.39-.85-3.83.28-2.69.85-3.79ZM476.69,227.1c-.34-.62-.8-1.09-1.37-1.42-.58-.33-1.2-.5-1.86-.5s-1.27.16-1.83.48c-.56.32-1.01.79-1.36,1.41s-.52,1.35-.52,2.2.17,1.59.52,2.23c.35.64.81,1.12,1.37,1.46.57.34,1.17.51,1.82.51s1.28-.17,1.86-.5c.58-.33,1.03-.81,1.37-1.42.34-.62.51-1.36.51-2.23s-.17-1.61-.51-2.23Z"/>
      <path class="cls-3" d="M487.83,217.54v18.83h-3.56v-18.83h3.56Z"/>
      <path class="cls-3" d="M491.59,220c-.42-.4-.62-.89-.62-1.49s.21-1.09.62-1.49c.42-.4.94-.6,1.56-.6s1.15.2,1.57.6c.42.4.62.9.62,1.49s-.21,1.09-.62,1.49c-.42.4-.94.6-1.57.6s-1.15-.2-1.56-.6ZM494.91,222.27v14.1h-3.56v-14.1h3.56Z"/>
      <path class="cls-3" d="M502.56,225.2v6.82c0,.48.12.82.34,1.03.23.21.62.32,1.16.32h1.65v3h-2.24c-3,0-4.5-1.46-4.5-4.38v-6.79h-1.68v-2.93h1.68v-3.49h3.59v3.49h3.16v2.93h-3.16Z"/>
      <path class="cls-3" d="M508.23,225.48c.57-1.1,1.34-1.95,2.32-2.54.98-.59,2.07-.89,3.27-.89,1.05,0,1.97.21,2.76.64s1.42.96,1.9,1.6v-2.01h3.59v14.1h-3.59v-2.06c-.46.66-1.09,1.21-1.9,1.64s-1.74.65-2.79.65c-1.19,0-2.27-.31-3.24-.92-.98-.61-1.75-1.47-2.32-2.58s-.85-2.39-.85-3.83.28-2.69.85-3.79ZM517.96,227.1c-.34-.62-.8-1.09-1.37-1.42-.58-.33-1.2-.5-1.86-.5s-1.27.16-1.83.48c-.56.32-1.01.79-1.36,1.41s-.52,1.35-.52,2.2.17,1.59.52,2.23c.35.64.81,1.12,1.37,1.46.57.34,1.17.51,1.82.51s1.28-.17,1.86-.5c.58-.33,1.03-.81,1.37-1.42.34-.62.51-1.36.51-2.23s-.17-1.61-.51-2.23Z"/>
      <path class="cls-3" d="M527.83,235.98c-.92-.42-1.64-.98-2.18-1.69-.53-.71-.83-1.5-.88-2.37h3.59c.07.54.33.99.8,1.35s1.05.53,1.74.53,1.21-.14,1.59-.41c.38-.27.57-.62.57-1.04,0-.46-.23-.8-.7-1.03-.47-.23-1.21-.48-2.23-.75-1.05-.25-1.91-.52-2.58-.79-.67-.27-1.25-.69-1.73-1.25s-.73-1.31-.73-2.26c0-.78.22-1.49.67-2.14.45-.64,1.09-1.15,1.93-1.53s1.83-.56,2.96-.56c1.68,0,3.02.42,4.02,1.26s1.55,1.97,1.65,3.4h-3.41c-.05-.56-.28-1-.7-1.34s-.97-.5-1.67-.5c-.64,0-1.14.12-1.49.36s-.52.57-.52.99c0,.47.24.84.71,1.08.48.25,1.21.5,2.21.75,1.02.25,1.86.52,2.52.79.66.27,1.23.69,1.72,1.26s.73,1.32.75,2.25c0,.81-.23,1.54-.67,2.19s-1.09,1.15-1.93,1.51c-.84.37-1.82.55-2.94.55s-2.19-.21-3.1-.62Z"/>
      <path class="cls-3" d="M548.98,218.61v10.99c0,1.2.31,2.12.94,2.76.63.64,1.51.95,2.65.95s2.04-.32,2.67-.95c.63-.64.94-1.56.94-2.76v-10.99h3.59v10.97c0,1.51-.33,2.79-.98,3.83-.65,1.04-1.53,1.83-2.62,2.35-1.09.53-2.31.79-3.65.79s-2.52-.26-3.6-.79c-1.08-.53-1.93-1.31-2.56-2.35-.63-1.04-.94-2.32-.94-3.83v-10.97h3.56Z"/>
      <path class="cls-3" d="M565.49,235.98c-.92-.42-1.64-.98-2.18-1.69-.53-.71-.83-1.5-.88-2.37h3.59c.07.54.33.99.8,1.35s1.05.53,1.74.53,1.21-.14,1.59-.41c.38-.27.57-.62.57-1.04,0-.46-.23-.8-.7-1.03-.47-.23-1.21-.48-2.23-.75-1.05-.25-1.91-.52-2.58-.79-.67-.27-1.25-.69-1.73-1.25s-.73-1.31-.73-2.26c0-.78.22-1.49.67-2.14.45-.64,1.09-1.15,1.93-1.53s1.83-.56,2.96-.56c1.68,0,3.02.42,4.02,1.26s1.55,1.97,1.65,3.4h-3.41c-.05-.56-.28-1-.7-1.34s-.97-.5-1.67-.5c-.64,0-1.14.12-1.49.36s-.52.57-.52.99c0,.47.24.84.71,1.08.48.25,1.21.5,2.21.75,1.02.25,1.86.52,2.52.79.66.27,1.23.69,1.72,1.26s.73,1.32.75,2.25c0,.81-.23,1.54-.67,2.19s-1.09,1.15-1.93,1.51c-.84.37-1.82.55-2.94.55s-2.19-.21-3.1-.62Z"/>
      <path class="cls-3" d="M577.01,225.48c.57-1.1,1.34-1.95,2.32-2.54.98-.59,2.07-.89,3.27-.89,1.05,0,1.97.21,2.76.64s1.42.96,1.9,1.6v-2.01h3.59v14.1h-3.59v-2.06c-.46.66-1.09,1.21-1.9,1.64s-1.74.65-2.79.65c-1.19,0-2.27-.31-3.24-.92-.98-.61-1.75-1.47-2.32-2.58s-.85-2.39-.85-3.83.28-2.69.85-3.79ZM586.74,227.1c-.34-.62-.8-1.09-1.37-1.42-.58-.33-1.2-.5-1.86-.5s-1.27.16-1.83.48c-.56.32-1.01.79-1.36,1.41s-.52,1.35-.52,2.2.17,1.59.52,2.23c.35.64.81,1.12,1.37,1.46.57.34,1.17.51,1.82.51s1.28-.17,1.86-.5c.58-.33,1.03-.81,1.37-1.42.34-.62.51-1.36.51-2.23s-.17-1.61-.51-2.23Z"/>
      <path class="cls-3" d="M605.12,222.77c.83.47,1.48,1.15,1.95,2.06s.7,2,.7,3.27v8.27h-3.56v-7.79c0-1.12-.28-1.98-.84-2.58-.56-.6-1.32-.9-2.29-.9s-1.76.3-2.33.9c-.57.6-.85,1.46-.85,2.58v7.79h-3.56v-18.83h3.56v6.49c.46-.61,1.07-1.09,1.83-1.44.76-.35,1.61-.52,2.54-.52,1.07,0,2.02.23,2.85.7Z"/>
      <path class="cls-3" d="M611.08,225.48c.57-1.1,1.34-1.95,2.32-2.54.98-.59,2.07-.89,3.27-.89,1.05,0,1.97.21,2.76.64s1.42.96,1.9,1.6v-2.01h3.59v14.1h-3.59v-2.06c-.46.66-1.09,1.21-1.9,1.64s-1.74.65-2.79.65c-1.19,0-2.27-.31-3.24-.92-.98-.61-1.75-1.47-2.32-2.58s-.85-2.39-.85-3.83.28-2.69.85-3.79ZM620.82,227.1c-.34-.62-.8-1.09-1.37-1.42-.58-.33-1.2-.5-1.86-.5s-1.27.16-1.83.48c-.56.32-1.01.79-1.36,1.41s-.52,1.35-.52,2.2.17,1.59.52,2.23c.35.64.81,1.12,1.37,1.46.57.34,1.17.51,1.82.51s1.28-.17,1.86-.5c.58-.33,1.03-.81,1.37-1.42.34-.62.51-1.36.51-2.23s-.17-1.61-.51-2.23Z"/>
      <path class="cls-3" d="M645.35,232.99h-7.07l-1.17,3.38h-3.74l6.39-17.79h4.15l6.39,17.79h-3.77l-1.17-3.38ZM644.38,230.14l-2.57-7.43-2.57,7.43h5.14Z"/>
      <path class="cls-3" d="M664.56,223.66c1.03,1.06,1.55,2.54,1.55,4.44v8.27h-3.56v-7.79c0-1.12-.28-1.98-.84-2.58-.56-.6-1.32-.9-2.29-.9s-1.76.3-2.33.9c-.57.6-.85,1.46-.85,2.58v7.79h-3.56v-14.1h3.56v1.76c.47-.61,1.08-1.09,1.82-1.44.74-.35,1.55-.52,2.43-.52,1.68,0,3.04.53,4.07,1.59Z"/>
      <path class="cls-3" d="M669.43,225.48c.57-1.1,1.34-1.95,2.33-2.54.98-.59,2.08-.89,3.28-.89.92,0,1.79.2,2.62.6.83.4,1.49.93,1.98,1.59v-6.69h3.61v18.83h-3.61v-2.09c-.44.7-1.06,1.26-1.86,1.68-.8.42-1.72.64-2.77.64-1.19,0-2.27-.31-3.26-.92-.98-.61-1.76-1.47-2.33-2.58s-.85-2.39-.85-3.83.28-2.69.85-3.79ZM679.17,227.1c-.34-.62-.8-1.09-1.37-1.42-.58-.33-1.2-.5-1.86-.5s-1.27.16-1.83.48c-.56.32-1.01.79-1.36,1.41s-.52,1.35-.52,2.2.17,1.59.52,2.23c.35.64.81,1.12,1.37,1.46.57.34,1.17.51,1.82.51s1.28-.17,1.86-.5c.58-.33,1.03-.81,1.37-1.42.34-.62.51-1.36.51-2.23s-.17-1.61-.51-2.23Z"/>
      <path class="cls-3" d="M686.69,225.48c.57-1.1,1.34-1.95,2.32-2.54.98-.59,2.07-.89,3.27-.89,1.05,0,1.97.21,2.76.64s1.42.96,1.9,1.6v-2.01h3.59v14.1h-3.59v-2.06c-.46.66-1.09,1.21-1.9,1.64s-1.74.65-2.79.65c-1.19,0-2.27-.31-3.24-.92-.98-.61-1.75-1.47-2.32-2.58s-.85-2.39-.85-3.83.28-2.69.85-3.79ZM696.42,227.1c-.34-.62-.8-1.09-1.37-1.42-.58-.33-1.2-.5-1.86-.5s-1.27.16-1.83.48c-.56.32-1.01.79-1.36,1.41s-.52,1.35-.52,2.2.17,1.59.52,2.23c.35.64.81,1.12,1.37,1.46.57.34,1.17.51,1.82.51s1.28-.17,1.86-.5c.58-.33,1.03-.81,1.37-1.42.34-.62.51-1.36.51-2.23s-.17-1.61-.51-2.23Z"/>
    </g>
    <path class="cls-1" d="M413.38,71.46v-8.61h-9.28v-10.25h-10.55v38.83c0,8.58,4.41,12.87,13.24,12.87h6.58v-8.83h-4.86c-1.6,0-2.73-.31-3.4-.93-.67-.62-1.01-1.63-1.01-3.03v-20.05h9.28Z"/>
    <rect class="cls-3" x="371.11" y="47.36" width="10.47" height="10.47" rx="2.34" ry="2.34" transform="translate(73.03 281.52) rotate(-45)"/>
    <rect class="cls-3" x="506.6" y="127.89" width="10.47" height="10.47" rx="2.34" ry="2.34" transform="translate(55.78 400.91) rotate(-45)"/>
    <path class="cls-1" d="M548.05,152.25v-8.61h-9.28v-10.25h-10.55v38.83c0,8.58,4.41,12.87,13.24,12.87h6.58v-8.83h-4.86c-1.6,0-2.73-.31-3.4-.93-.67-.62-1.01-1.63-1.01-3.03v-20.05h9.28Z"/>
  </g>
  <path class="cls-3" d="M141.2,130.47l-105.66-47.49c-2.57-1.15-5.47.72-5.47,3.54v117.55c0,1.54.91,2.93,2.32,3.55l42.88,18.87c2.56,1.13,5.44-.75,5.44-3.55v-59.47c0-2.74,2.76-4.61,5.3-3.61l55.26,21.86c.94.37,1.99.36,2.92-.03l40.76-16.99c1.45-.61,2.4-2.03,2.39-3.6l-.27-42.73c-.02-2.76-2.83-4.62-5.38-3.55l-37.4,15.69c-.99.42-2.11.4-3.09-.04Z"/>
  <path class="cls-2" d="M203.75,110.01v60.33c0,2.11-1.25,4.03-3.18,4.88l-55.1,24.23c-1.27.56-2.7.6-4,.12l-39.71-14.7c-1.88-.7-3.88.7-3.86,2.71l.24,43.58c.01,2.12,1.28,4.04,3.24,4.87l39.27,16.78c1.33.57,2.84.57,4.18,0l106.82-45.33c1.97-.84,3.25-2.77,3.25-4.91v-112.12c0-2.55-2.6-4.28-4.95-3.29l-42.92,17.94c-1.98.83-3.27,2.77-3.27,4.92Z"/>
  <path class="cls-3" d="M74.56,55.95l20.74,7.95c.71.27,1.49.27,2.2,0l67.95-26.43c.72-.28.76-1.28.06-1.59-4.49-2.05-15.97-7.29-21.43-9.68-.89-.39-1.87-.39-2.77-.02l-66.78,27.71c-.93.38-.91,1.7.03,2.06Z"/>
  <path class="cls-2" d="M111.93,68.06l29.98-12.51c.52-.22,1.11-.2,1.62.04l29.27,13.9c1.38.66,1.34,2.64-.07,3.24l-28.47,12.03c-.5.21-1.06.21-1.55,0l-30.8-13.01c-1.63-.69-1.62-3,0-3.68Z"/>
  <g>
    <path class="cls-3" d="M128.96,91.21l-18.19,7.7c-1.49.63-3.15.62-4.63-.03-23.41-10.34-51.09-22.59-62.56-27.75-1.98-.9-2.01-3.75-.03-4.68l17.33-6.91c.31-.12.65-.12.96.03l67.13,28.55c1.37.58,1.37,2.52,0,3.1Z"/>
    <path class="cls-3" d="M209.97,89.32l-64.08,25.55c-1.15.47-2.39.43-3.53-.06-3.31-1.42-10.93-4.78-20.63-9.07-1.47-.65-1.46-2.76.04-3.37l22.49-9.14,14.48-5.89v-.03l23.56-9.61,2.38-.99c1.21-.5,2.58-.47,3.76.09l21.61,10.2c.99.47.96,1.92-.06,2.33Z"/>
    <path class="cls-3" d="M245.68,71.85c-16.63-7.82-57.06-25.96-67.45-30.3-.96-.4-2.03-.38-2.98.04l-19.42,8.63c-1.25.56-1.26,2.33-.02,2.9l28.21,12.94h0l38.31,17.2c.84.38,1.8.4,2.65.06l20.58-8.21c1.45-.58,1.54-2.6.12-3.27Z"/>
  </g>
</svg>